<?xml version="1.0" encoding="UTF-8"?>
<!DOCTYPE svg PUBLIC "-//W3C//DTD SVG 1.1//EN" "http://www.w3.org/Graphics/SVG/1.1/DTD/svg11.dtd">
<!-- Creator: CorelDRAW 2018 (64-Bit) -->
<svg xmlns="http://www.w3.org/2000/svg" xml:space="preserve" width="1in" height="1in" version="1.1" style="shape-rendering:geometricPrecision; text-rendering:geometricPrecision; image-rendering:optimizeQuality; fill-rule:evenodd; clip-rule:evenodd"
viewBox="0 0 1000 1000"
 xmlns:xlink="http://www.w3.org/1999/xlink">
 <defs>
  <style type="text/css">
   <![CDATA[
    .fil0 {fill:#0A4183}
    .fil1 {fill:#2491C6}
   ]]>
  </style>
 </defs>
 <g id="Layer_x0020_1">
  <metadata id="CorelCorpID_0Corel-Layer"/>
  <path class="fil0" d="M781.39 835.07l-33.72 -101.19c-11.79,-35.33 -41.85,-61.41 -78.51,-68.07l-97.36 -17.72 0 -7.55c16.94,-9.83 31.69,-22.99 43.43,-38.56l29.42 -0c24.1,0 43.7,-19.61 43.7,-43.7l0 -174.81c0,-104.43 -84.96,-189.39 -189.39,-189.39 -104.43,0 -189.38,84.96 -189.38,189.39l0 101.98c0,28.09 19.97,51.59 46.46,57.06 8.17,41.87 34.34,77.3 70.09,98.04l0 7.55 -97.37 17.72c-36.64,6.67 -66.72,32.75 -78.49,68.07l-5.83 17.5 -49.62 -49.62c-5.68,-5.68 -5.68,-14.93 0,-20.61l57.54 -57.53 -108 -108.01 -65.04 65.04c-19.26,19.26 -29.87,44.87 -29.87,72.11 0,27.24 10.61,52.84 29.87,72.1l196.89 196.89c19.26,19.26 44.87,29.88 72.11,29.88 27.24,0 52.84,-10.62 71.65,-29.44l70.96 -65.02 -22.13 -22.08 312.6 0zm-122.18 -276.8c0,8.04 -6.54,14.57 -14.57,14.57l-12.25 0c4.22,-9.63 7.43,-19.78 9.5,-30.35 6.24,-1.3 11.98,-3.77 17.32,-6.89l0 22.67zm-14.57 -47.75l0 -50.17c8.67,5.06 14.57,14.35 14.57,25.09 0,10.74 -5.9,20.03 -14.57,25.09zm-291.36 0c-8.67,-5.06 -14.57,-14.35 -14.57,-25.09 0,-10.74 5.9,-20.03 14.57,-25.09l0 50.18zm0 -97.93l0 16.64c-5.19,1.35 -10.05,3.4 -14.57,6.03l0 -51.8c0,-88.35 71.89,-160.25 160.25,-160.25 88.36,0 160.25,71.9 160.25,160.25l0 51.8c-4.52,-2.64 -9.38,-4.69 -14.57,-6.03l-0 -16.64 -14.57 0c-43.08,0 -83.57,-16.78 -114.06,-47.24l-17.06 -17.06 -17.06 17.06c-30.48,30.46 -70.98,47.24 -114.06,47.24l-14.57 0zm29.14 101.98l0 -73.39c43.75,-3.29 84.54,-21.34 116.54,-51.78 32.01,30.43 72.8,48.5 116.55,51.78l0 73.39c0,21.24 -5.8,41.11 -15.76,58.28l-100.78 0 0 29.14 76.83 -0c-20.54,18.08 -47.39,29.14 -76.83,29.14 -64.26,0 -116.54,-52.28 -116.54,-116.55zm160.25 138.96l0 0.69 -43.7 43.7 -43.7 -43.7 0 -0.69c13.81,4.34 28.48,6.72 43.7,6.72 15.22,0 29.9,-2.38 43.7,-6.72zm-264.79 89.55c8.41,-25.23 29.9,-43.86 56.07,-48.64l101.83 -18.5 63.18 63.18 63.17 -63.17 101.81 18.5c26.18,4.78 47.67,23.39 56.07,48.64l20.97 62.83 -301.33 0 -56.74 -56.74 -63.05 57.04c-5.49,5.52 -15.09,5.52 -20.6,0l-31.81 -31.81 10.43 -31.32zm-133.54 -186.28l66.81 66.81 -15.82 15.82 -66.81 -66.81 15.82 -15.82zm255.45 344.36c-13.75,13.72 -32.05,21.31 -51.5,21.31 -19.45,0 -37.74,-7.59 -51.51,-21.34l-196.89 -196.87c-13.75,-13.75 -21.33,-32.05 -21.33,-51.5 0,-19.46 7.57,-37.76 21.33,-51.51l8.01 -8.01 66.81 66.81 -0.52 0.52c-17.03,17.04 -17.03,44.77 0,61.81l104.46 104.46c8.26,8.25 19.23,12.81 30.91,12.81 11.68,0 22.65,-4.54 30.37,-12.3l1.09 -0.98 67.11 67.11 -8.36 7.66zm29.87 -27.39l-66.97 -66.97 19.25 -17.39 66.85 66.85 -19.13 17.51z"/>
  <path class="fil0" d="M906.87 48.39l-203.95 0c-24.1,0 -43.7,19.61 -43.7,43.7l0 116.54c0,24.09 19.61,43.7 43.7,43.7l38.91 0 -15.06 87.86 140.58 -87.86 39.53 0c24.09,0 43.7,-19.61 43.7,-43.7l0 -116.55c0,-24.1 -19.61,-43.7 -43.7,-43.7zm14.57 160.25c0,8.02 -6.54,14.57 -14.57,14.57l-47.89 -0 -92.52 57.82 9.92 -57.82 -73.46 0c-8.03,0 -14.57,-6.54 -14.57,-14.57l0 -116.54c0,-8.03 6.54,-14.57 14.57,-14.57l203.95 0c8.02,0 14.57,6.54 14.57,14.57l0 116.55z"/>
  <rect class="fil1" x="717.48" y="106.66" width="174.82" height="29.14"/>
  <rect class="fil1" x="717.48" y="164.93" width="116.54" height="29.14"/>
  <rect class="fil1" x="863.16" y="164.93" width="29.14" height="29.14"/>
  <path class="fil1" d="M498.96 92.09c-190.34,0 -354.31,131.67 -396.94,315.33l-27.6 -46.02 -24.98 14.99 51.2 85.33 85.33 -51.2 -14.99 -24.98 -39.48 23.69c41.29,-168.01 192.37,-287.98 367.46,-287.98 38.27,0 76.03,5.68 112.24,16.9l8.62 -27.83c-39,-12.09 -79.66,-18.21 -120.86,-18.21z"/>
  <path class="fil1" d="M943.49 370.96l-85.33 -51.2 -51.19 85.34 24.98 14.99 25.49 -42.49c13.42,39.26 20.28,80.33 20.28,122.41 0,86.64 -30.01,171.33 -84.48,238.48l22.62 18.36c58.68,-72.31 90.99,-163.54 90.99,-256.83 0,-44.56 -7.19,-88.08 -21.19,-129.74l42.81 25.69 15 -24.99z"/>
 </g>
</svg>
