<?xml version="1.0" encoding="UTF-8"?>
<!DOCTYPE svg PUBLIC "-//W3C//DTD SVG 1.1//EN" "http://www.w3.org/Graphics/SVG/1.1/DTD/svg11.dtd">
<!-- Creator: CorelDRAW 2018 (64-Bit) -->
<svg xmlns="http://www.w3.org/2000/svg" xml:space="preserve" width="1in" height="1in" version="1.1" style="shape-rendering:geometricPrecision; text-rendering:geometricPrecision; image-rendering:optimizeQuality; fill-rule:evenodd; clip-rule:evenodd"
viewBox="0 0 1000 1000"
 xmlns:xlink="http://www.w3.org/1999/xlink">
 <defs>
  <style type="text/css">
   <![CDATA[
    .fil1 {fill:#0A4183}
    .fil0 {fill:#2491C6}
   ]]>
  </style>
 </defs>
 <g id="Layer_x0020_1">
  <metadata id="CorelCorpID_0Corel-Layer"/>
  <g id="_1410299106624">
   <g>
    <path class="fil0" d="M500 331.68c-92.81,0 -168.32,75.51 -168.32,168.32 0,32.68 9.37,63.2 25.55,89.05 0.49,0.96 1.08,1.87 1.75,2.74 30.07,46.04 82.04,76.52 141.02,76.52 92.81,0 168.32,-75.51 168.32,-168.32 0,-92.81 -75.51,-168.32 -168.32,-168.32zm-121.55 217.97c-6.28,-15.33 -9.78,-32.09 -9.78,-49.65 0,-72.41 58.91,-131.32 131.33,-131.32 44.31,0 83.54,22.08 107.33,55.8l-101.59 101.59 -38.77 -38.77c-7.23,-7.22 -18.94,-7.22 -26.16,0l-62.36 62.36zm121.55 81.67c-41.19,0 -77.98,-19.07 -102.08,-48.83l55.96 -55.96 38.77 38.77c7.22,7.22 18.93,7.22 26.16,0l106.01 -106.01c4.2,12.83 6.49,26.5 6.49,40.71 0,72.41 -58.91,131.32 -131.32,131.32z"/>
   </g>
  </g>
  <path class="fil1" d="M784.57 487.24c-2.91,-90.39 -28.2,-179.04 -73.61,-257.42 -48.34,-83.44 -118.11,-152.92 -201.76,-200.9 -5.7,-3.27 -12.71,-3.27 -18.41,0 -83.65,47.98 -153.43,117.45 -201.76,200.9 -45.4,78.38 -70.7,167.03 -73.61,257.42 -64.84,27.83 -107.57,91.85 -107.57,163.24l0 130.68c0,10.22 8.29,18.5 18.5,18.5l271.8 0c3.98,55.64 28.34,108.93 68.22,148.22l20.64 20.34c3.6,3.54 8.29,5.32 12.98,5.32 4.69,0 9.38,-1.78 12.98,-5.32l20.64 -20.34c39.88,-39.29 64.24,-92.58 68.22,-148.22l57.23 0 0 95.46c0,10.22 8.28,18.5 18.5,18.5 10.21,0 18.5,-8.28 18.5,-18.5l0 -95.47 177.57 0c10.21,0 18.5,-8.28 18.5,-18.5l0 -130.68c0,-71.39 -42.73,-135.41 -107.57,-163.24zm-284.57 -420.82c58.16,35 107.87,80.78 147.19,133.93l-294.38 0c39.31,-53.14 89.03,-98.93 147.19,-133.93zm-355.15 696.24l0 -112.19c0,-50.86 27.39,-97 70.29,-121.8l0 215.48c0,6.48 1.13,12.7 3.18,18.5l-73.47 0zm362.8 158.86l-7.65 7.54 -7.66 -7.54c-32.87,-32.38 -53.17,-76.09 -57.07,-121.87l129.46 0c-3.91,45.78 -24.21,89.48 -57.08,121.87zm240.21 -177.36c0,10.2 -8.3,18.5 -18.5,18.5l-458.74 0c-10.2,0 -18.5,-8.3 -18.5,-18.5l0 -239.38c0,-66.98 13.23,-132.24 37.78,-192.53l83.76 -0c10.21,0 18.5,-8.28 18.5,-18.5 0,-10.22 -8.29,-18.5 -18.5,-18.5l-66.94 0c6.5,-12.93 13.55,-25.58 21.12,-37.92l344.3 0c48.62,79.26 75.71,171.6 75.71,267.44l0 239.38zm107.28 18.5l-73.47 0c2.06,-5.79 3.18,-12.01 3.18,-18.5l0 -215.48c42.89,24.79 70.29,70.93 70.29,121.8l0 112.18z"/>
  <g id="_1410299105024">
   <g>
    <path class="fil0" d="M453.88 280.68c-3.44,-3.44 -8.21,-5.42 -13.07,-5.42 -4.87,0 -9.64,1.98 -13.07,5.42 -3.44,3.44 -5.42,8.21 -5.42,13.07 0,4.86 1.98,9.64 5.42,13.07 3.44,3.44 8.21,5.42 13.07,5.42 4.86,0 9.64,-1.98 13.07,-5.42 3.44,-3.44 5.42,-8.21 5.42,-13.07 0,-4.86 -1.98,-9.63 -5.42,-13.07z"/>
   </g>
  </g>
  <g id="_1410299105120">
   <g>
    <path class="fil0" d="M322.43 849.14c-10.21,0 -18.5,8.28 -18.5,18.5l0 56.98c0,10.22 8.28,18.5 18.5,18.5 10.21,0 18.5,-8.28 18.5,-18.5l0 -56.98c0,-10.22 -8.28,-18.5 -18.5,-18.5z"/>
   </g>
  </g>
  <g id="_1410299101312">
   <g>
    <path class="fil0" d="M690.65 941.96c-3.44,-3.44 -8.21,-5.42 -13.08,-5.42 -4.87,0 -9.64,1.98 -13.07,5.42 -3.44,3.44 -5.42,8.22 -5.42,13.08 0,4.86 1.98,9.64 5.42,13.07 3.44,3.44 8.21,5.42 13.07,5.42 4.86,0 9.64,-1.98 13.08,-5.42 3.44,-3.44 5.42,-8.21 5.42,-13.07 0,-4.86 -1.98,-9.64 -5.42,-13.08z"/>
   </g>
  </g>
  <g id="_1410299101280">
  </g>
  <g id="_1410299102976">
  </g>
  <g id="_1410299101888">
  </g>
  <g id="_1410299100768">
  </g>
  <g id="_1410299099360">
  </g>
  <g id="_1410299099552">
  </g>
  <g id="_1410299100800">
  </g>
  <g id="_1410299099040">
  </g>
  <g id="_1410299098688">
  </g>
  <g id="_1410299098880">
  </g>
  <g id="_1410299097376">
  </g>
  <g id="_1410299096544">
  </g>
  <g id="_1410299096512">
  </g>
  <g id="_1410299095104">
  </g>
  <g id="_1410299093248">
  </g>
 </g>
</svg>
