<?xml version="1.0" encoding="UTF-8"?>
<!DOCTYPE svg PUBLIC "-//W3C//DTD SVG 1.1//EN" "http://www.w3.org/Graphics/SVG/1.1/DTD/svg11.dtd">
<!-- Creator: CorelDRAW 2017 -->
<svg xmlns="http://www.w3.org/2000/svg" xml:space="preserve" width="1in" height="1in" version="1.1" style="shape-rendering:geometricPrecision; text-rendering:geometricPrecision; image-rendering:optimizeQuality; fill-rule:evenodd; clip-rule:evenodd"
viewBox="0 0 1000 1000"
 xmlns:xlink="http://www.w3.org/1999/xlink">
 <defs>
  <style type="text/css">
   <![CDATA[
    .fil0 {fill:#FEFEFE}
   ]]>
  </style>
 </defs>
 <g id="Layer_x0020_1">
  <metadata id="CorelCorpID_0Corel-Layer"/>
  <path class="fil0" d="M283.58 716.42l432.84 0 0 -432.84 -432.84 0 0 432.84zm29.12 -420.09c-25.01,7.17 -17.44,38.72 -17.44,84.63 0,34.46 0.61,69.49 -0.07,103.89 -0.46,22.93 -1.32,195.14 0.89,204.11 6.11,24.87 58.78,16.68 84.89,16.68 35.9,0 296.56,1.97 308.57,-1.05 15.34,-3.86 16.24,-15.89 16.15,-33.59 -0.28,-59.62 2.08,-349.21 -1.39,-360.28 -4.43,-14.13 -16.36,-15.59 -33.26,-15.51 -60.09,0.29 -346.43,-2.3 -358.34,1.12zm169.17 11.77c-100.96,7.97 -182.58,98.85 -173.68,211.02 7.98,100.65 99.2,182.65 211.24,173.61 100.04,-8.07 183.98,-100.4 173.14,-212.27 -9.74,-100.52 -98.9,-181.19 -210.7,-172.36zm211.22 115.2c3.28,-137.53 7.86,-115.65 -56.75,-115.65 -19.72,0 -41.1,-0.79 -60.61,0.35 28.32,18.1 33.02,10.93 68.39,45.7 10.3,10.12 18.19,18.7 26.77,31.7l22.2 37.91zm-269.83 269.79c-0.46,-0.42 -1.19,-1.62 -1.45,-1.18 -2.02,3.41 1.15,-0.24 -7.35,-4.72 -26.47,-13.96 -36.56,-18.5 -59.72,-41.94 -35.73,-36.15 -28.43,-40.83 -46.75,-69.51 -0.81,14.04 -2.42,106.74 1.44,112.7 5.79,8.96 96.53,5.09 113.83,4.65zm153.94 -0.18c20.13,1.04 100.22,2.52 113.73,-1.96 4.83,-14.62 3.06,-92.71 1.98,-113.75l-20.76 36.51c-15.63,23.78 -33.17,41.86 -57.14,57.6 -19.25,12.64 -19.4,10.53 -32.15,17.71 -0.59,0.33 -2.38,1.48 -2.88,1.8 -0.4,0.26 -1.07,0.81 -1.39,1.03 -0.32,0.22 -0.95,0.69 -1.39,1.07zm-268.85 -267.29c17.91,-50.02 67.22,-99.41 117.28,-117.27 -13.62,-1.75 -109.59,-2.82 -114.85,2.43 -5.26,5.26 -4.17,101.21 -2.43,114.84zm92.37 124.5l27.69 0c15.31,0 27.7,-10.66 27.7,-24.26l0 -5.88c0,-7.72 -4.18,-15.07 -11.13,-19.61 4.31,-4.04 7.09,-9.19 7.09,-15.32l0 -12.62c0,-12.38 -11.55,-22.43 -25.61,-22.43l-25.75 0 0 100.13zm27.69 -42.65c7.8,0 14.2,5.64 14.2,12.5l0 5.88c0,6.86 -6.4,12.5 -14.2,12.5l-14.33 0 0 -30.89 14.33 0zm-1.94 -45.71c6.54,0 12.11,4.9 12.11,10.66l0 12.62c0,5.76 -5.57,10.66 -12.11,10.66l-12.39 0 0 -33.94 12.39 0zm75.99 77.57c-7.65,0 -14.62,-3.68 -14.62,-8.7l0 -60.42c0,-5.03 6.96,-8.7 14.62,-8.7 7.79,0 14.61,3.68 14.61,8.7l0 60.42c0,5.02 -6.82,8.7 -14.61,8.7zm27.97 -69.12c0,-11.52 -13.08,-20.22 -27.97,-20.22 -14.62,0 -27.98,8.7 -27.98,20.22l0 60.42c0,11.52 13.36,20.22 27.98,20.22 14.89,0 27.97,-8.7 27.97,-20.22l0 -60.42zm69.87 -20.22l-13.5 0 0 45.59 -22.13 0 0 -45.59 -13.5 0 0 100.13 13.5 0 0 -42.77 22.13 0 0 42.77 13.5 0 0 -100.13z"/>
 </g>
</svg>
