<?xml version="1.0" encoding="UTF-8"?>
<!DOCTYPE svg PUBLIC "-//W3C//DTD SVG 1.1//EN" "http://www.w3.org/Graphics/SVG/1.1/DTD/svg11.dtd">
<!-- Creator: CorelDRAW 2017 -->
<svg xmlns="http://www.w3.org/2000/svg" xml:space="preserve" width="1in" height="1in" version="1.1" style="shape-rendering:geometricPrecision; text-rendering:geometricPrecision; image-rendering:optimizeQuality; fill-rule:evenodd; clip-rule:evenodd"
viewBox="0 0 1000 1000"
 xmlns:xlink="http://www.w3.org/1999/xlink">
 <defs>
  <style type="text/css">
   <![CDATA[
    .fil0 {fill:#FEFEFE}
   ]]>
  </style>
 </defs>
 <g id="Layer_x0020_1">
  <metadata id="CorelCorpID_0Corel-Layer"/>
  <path class="fil0" d="M678.85 579.35c137,-450.15 -508.85,-371.86 -352.28,-6.52 78.28,202.23 260.95,215.28 352.28,6.52zm-208.76 -260.95c-97.85,19.57 -143.52,104.38 -110.91,208.76 13.05,52.2 91.33,195.72 176.14,150.05 65.24,-32.62 123.95,-137 123.95,-215.28 0,-91.33 -91.33,-163.1 -189.19,-143.52zm13.05 313.14c45.67,-97.86 -78.29,-189.19 -104.38,-163.1 -26.1,26.1 45.67,189.19 104.38,163.1zm39.14 0c52.19,26.09 130.48,-137 104.38,-163.1 -26.09,-26.09 -143.52,58.71 -104.38,163.1z"/>
 </g>
</svg>
