<?xml version="1.0" encoding="UTF-8"?>
<!DOCTYPE svg PUBLIC "-//W3C//DTD SVG 1.1//EN" "http://www.w3.org/Graphics/SVG/1.1/DTD/svg11.dtd">
<!-- Creator: CorelDRAW 2017 -->
<svg xmlns="http://www.w3.org/2000/svg" xml:space="preserve" width="1in" height="1in" version="1.1" style="shape-rendering:geometricPrecision; text-rendering:geometricPrecision; image-rendering:optimizeQuality; fill-rule:evenodd; clip-rule:evenodd"
viewBox="0 0 1000 1000"
 xmlns:xlink="http://www.w3.org/1999/xlink">
 <defs>
  <style type="text/css">
   <![CDATA[
    .fil0 {fill:#FEFEFE}
   ]]>
  </style>
 </defs>
 <g id="Layer_x0020_1">
  <metadata id="CorelCorpID_0Corel-Layer"/>
  <g id="_2518450473168">
   <path class="fil0" d="M290.04 496.2c0,12.61 16.08,19.28 23,27.65l76.49 79.07c7.54,-14.26 -6.66,-24.09 0,-30.75 7.52,-3.61 23.41,-1.52 33.63,-2.59 27.81,-2.93 23.3,18.12 41.54,30.53 27.85,18.94 96.67,15.45 96.67,-36.98 0,-51.24 -69.24,-18.43 -124.23,-45.8 -29.07,-14.46 -49.05,-46.07 -49.55,-79.02 -0.17,-11.45 3.5,-28.64 3.75,-39.78 -10.73,2.87 -19.21,14.69 -26.68,22.16l-50.33 49.15c-4.94,3.82 -24.28,20.81 -24.28,26.37z"/>
   <path class="fil0" d="M443.8 427.47c0,63.87 81.01,33.36 135.1,60.26 9.07,4.51 14.25,10.15 20.96,17.02 15.94,16.3 19.39,44.3 19.39,69.24 0,10.04 -1.81,10.73 -1.81,19.9 11.2,-2.99 55.67,-51.15 70.09,-65.57 30.09,-30.09 29.98,-23.38 -0.91,-54.26l-47.93 -49.74c-4.43,-4.43 -8.6,-8.07 -12.67,-12.66 -7.29,-8.23 -4.5,-11.06 -12.21,-13.11 -7.28,8.72 12.91,36.18 -5.43,36.18 -30.07,0 -46.83,4.81 -53.57,-11.55 -3.62,-8.77 -3.49,-12.71 -10.2,-18.74 -35.06,-31.46 -100.83,-8.57 -100.83,23.05z"/>
  </g>
 </g>
</svg>
