<?xml version="1.0" encoding="UTF-8"?>
<!DOCTYPE svg PUBLIC "-//W3C//DTD SVG 1.1//EN" "http://www.w3.org/Graphics/SVG/1.1/DTD/svg11.dtd">
<!-- Creator: CorelDRAW 2017 -->
<svg xmlns="http://www.w3.org/2000/svg" xml:space="preserve" width="1in" height="1in" version="1.1" style="shape-rendering:geometricPrecision; text-rendering:geometricPrecision; image-rendering:optimizeQuality; fill-rule:evenodd; clip-rule:evenodd"
viewBox="0 0 1000 1000"
 xmlns:xlink="http://www.w3.org/1999/xlink">
 <defs>
  <style type="text/css">
   <![CDATA[
    .fil0 {fill:#FEFEFE}
   ]]>
  </style>
 </defs>
 <g id="Layer_x0020_1">
  <metadata id="CorelCorpID_0Corel-Layer"/>
  <g id="_2518405447744">
   <path class="fil0" d="M466.5 626.63c0,3.4 0.02,6.8 -0.03,10.19 -0.15,8.87 -1.67,7.59 12.73,7.59 7.49,0 12.13,-3.07 15.12,-7.74 3.63,-5.66 3.51,-11.16 3.51,-20.2 -0.01,-16.49 0.85,-30.84 0.85,-46.56 0,-15.52 0,-31.04 0,-46.56 0,-11.74 -3.64,-40 7.49,-39.34 10.46,0.62 6.9,28.12 6.9,39.34l-0.01 93.98c-0.1,16.69 3.55,27.08 20.33,27.08l45.72 0 0 -19.47 -37.25 0c-6.2,0 -11.85,-6.35 -11.85,-13.54l0 -46.56c0,-17.34 20.55,-15.24 33.02,-15.24l0 -16.08c-11,0 -26.83,1.94 -31.96,-8.67 -3.63,-7.5 -0.19,-40.26 -2.89,-48.75 -5.02,-15.77 -15.83,-12.85 -30.33,-12.85 -15.75,0 -16.09,20.93 -16.09,32.17l0 97.36c0,21.24 3.52,29.49 -15.24,33.86z"/>
   <path class="fil0" d="M556.23 481.87c0,2.88 2.13,2.63 4.38,3.24 2.86,0.78 4.04,1.21 5.81,2.65 2.59,2.11 5.04,6.33 5.04,11.04l0 111.75 16.93 0 0 -60.96c0,-18.75 38.09,-23.31 38.09,4.23l0 56.72c10.77,0 16.93,1.57 16.93,-2.54l0 -117.67c0,-5.75 -1.41,-11.92 -3.7,-15.77 -6.14,-10.3 -14.89,-7.93 -28.47,-7.93l0.85 17.78c20.37,0.46 19.25,33.86 -1.69,33.86 -23.94,0 -21.79,-9.44 -21.98,-25.43 -0.35,-29.79 -16.26,-26.21 -32.2,-26.21l0 15.24z"/>
   <path class="fil0" d="M297.18 495.41l37.5 -15.83c6.59,-2.59 12.65,-4.39 19.54,-6.7 21.44,-7.21 42.05,-11.35 64.65,-15.77 9.76,-1.91 37.27,-5.71 47.63,-5.71 -0.18,0.11 -0.48,0.02 -0.57,0.27l-28.33 10.61c-10.08,4.02 -18.6,8.24 -27.82,12.81l-25.56 15.08c-8.05,5.37 -21.19,14.84 -28.41,21.53l-10.25 10.07c-4.28,5.16 -7.67,7.66 -14.39,16.09 -3.09,3.87 -5.83,7.5 -8.7,11.61 -1.38,1.98 -2.58,4.11 -3.94,6.22 -10.28,15.91 -16.09,31.78 -20.48,50.63l113.27 73.82c5.03,3.35 35.24,23.68 38.26,24.38 -2.03,-2.77 -13.38,-9.77 -17.27,-12.36 -6.38,-4.25 -12.15,-7.86 -18.15,-12.32l-35.85 -24.25c-3.25,-2.17 -69,-47.45 -72.64,-48.43 0,-8.7 9.13,-31.55 12.97,-38.67 1.35,-2.52 2.63,-4.59 4,-7 33,-57.69 95.22,-92.35 157.34,-111.87 0.35,-0.11 1.7,-0.52 1.94,-0.6l1.8 -0.74c0.13,-0.06 0.39,-0.16 0.57,-0.27 -60.89,0 -124.81,15.43 -177.5,41.76 -3.27,1.63 -7.7,3.06 -9.59,5.64z"/>
   <path class="fil0" d="M526.6 710.44c2.85,-0.76 6.11,-3.51 8.46,-5.08l73.48 -50.13c5.71,-3.82 11.16,-7.11 16.75,-11.19 19.19,-13.97 47.33,-31.22 65.41,-44.64 5.14,-3.81 10.93,-7.37 16.22,-10.87l65.53 -44.53c3,-2.08 4.92,-3.58 7.95,-5.59 4.1,-2.72 7,-3.63 7.79,-6.6 -2.9,-0.78 -41.44,-27.58 -49.1,-33.02l-130.71 -90.25c-5.94,-3.94 -10.93,-7.58 -16.6,-11.33 -2.84,-1.88 -4.9,-3.57 -7.95,-5.59l-24.57 -16.91c-2.89,-2.11 -5.41,-3.52 -8.11,-5.44 -2.84,-2.02 -5.5,-3.94 -8.46,-5.92 -3.82,-2.54 -13.72,-10.15 -16.93,-11 1.63,2.44 59.01,42.67 62.48,45.04 5.49,3.74 10.28,7.36 15.77,11.33l157.94 112.11c2.58,1.82 5.14,3.65 7.86,5.68 2.25,1.69 5.9,4.7 8.23,5.32 -0.97,3.62 -9.76,8.18 -14.52,11.72 -5.31,3.95 -10.64,7.37 -15.95,11.14 -21.03,14.93 -57.85,41.54 -79.07,55.54l-134.28 94.3c-2.64,1.87 -5.8,3.22 -7.61,5.93z"/>
   <path class="fil0" d="M458.88 354.04c-3.23,0.86 -60.76,40.5 -67.56,45.04l-201.65 136.13c5.13,2.71 8.9,5.37 13.55,8.46 2.95,1.97 10.43,7.63 13.54,8.46l2.69 -3.25c-2.41,-3.19 -17.08,-11.06 -19.62,-14.52l227.01 -157.33c2.83,-2.1 4.91,-3.49 8,-5.54 3.91,-2.6 22.38,-14.96 24.04,-17.44z"/>
   <path class="fil0" d="M499.62 432.8l-16.19 -0.04c3.09,2.68 12.7,9.16 12.7,10.16 0,4.35 -3.81,10.11 -4.23,15.24 4.18,-2.8 8.45,-6.46 12.7,-9.31 2.79,1.48 3.95,2.58 6.61,4.4 2.57,1.76 4.44,3.24 6.94,4.91l-5.2 -16.04c2.26,-0.61 5.07,-3 6.89,-4.28 2.09,-1.46 4.55,-3 5.93,-5.07l-16.09 0 -5.08 -15.24 -4.97 15.27z"/>
   <path class="fil0" d="M525.76 352.35c-1.39,-2.07 -3.19,-3.5 -5.93,-4.23 1.39,2.07 3.19,3.5 5.93,4.23z"/>
   <path class="fil0" d="M461.42 352.35c2.41,-0.58 1.27,0.13 2.54,-1.69 -2.42,0.57 -1.28,-0.13 -2.54,1.69z"/>
   <path class="fil0" d="M458.88 354.04c2.41,-0.58 1.27,0.13 2.54,-1.69 -2.42,0.57 -1.28,-0.13 -2.54,1.69z"/>
   <path class="fil0" d="M466.5 348.96c2.41,-0.57 1.27,0.13 2.54,-1.69 -2.42,0.58 -1.28,-0.13 -2.54,1.69z"/>
   <path class="fil0" d="M511.36 342.19c-1.26,-1.82 -0.12,-1.11 -2.54,-1.69 1.27,1.82 0.13,1.11 2.54,1.69z"/>
   <path class="fil0" d="M517.29 346.42c-1.27,-1.82 -0.13,-1.11 -2.54,-1.69 1.26,1.82 0.12,1.12 2.54,1.69z"/>
   <path class="fil0" d="M514.75 344.72c-1.27,-1.82 -0.13,-1.11 -2.54,-1.69 1.27,1.82 0.13,1.12 2.54,1.69z"/>
   <path class="fil0" d="M463.96 350.65c2.41,-0.58 1.27,0.13 2.54,-1.7 -2.42,0.58 -1.28,-0.13 -2.54,1.7z"/>
   <path class="fil0" d="M508.82 340.49c-1.26,-1.82 -0.12,-1.11 -2.54,-1.69 1.27,1.82 0.13,1.11 2.54,1.69z"/>
   <path class="fil0" d="M519.83 348.11c-1.27,-1.82 -0.13,-1.12 -2.54,-1.7 1.26,1.82 0.12,1.12 2.54,1.7z"/>
   <polygon class="fil0" points="500.36,334.57 500.36,335.41 501.35,334.71 "/>
   <polygon class="fil0" points="290.41,498.8 289.56,498.8 290.27,499.79 "/>
   <polygon class="fil0" points="500.36,334.57 500.36,333.72 499.37,334.43 "/>
   <polygon class="fil0" points="477.5,341.34 478.35,341.34 477.64,340.35 "/>
   <polygon class="fil0" points="497.82,332.87 497.82,332.03 496.83,332.73 "/>
   <polygon class="fil0" points="497.82,332.87 497.82,333.72 498.81,333.02 "/>
   <polygon class="fil0" points="502.9,336.26 502.9,335.41 501.91,336.12 "/>
   <path class="fil0" d="M479.19 340.49l0.25 -0.25c-0.02,0.02 -0.33,0.17 -0.25,0.25z"/>
   <polygon class="fil0" points="503.74,337.11 502.9,336.26 "/>
   <polygon class="fil0" points="505.44,337.95 503.74,337.11 "/>
   <polygon class="fil0" points="477.5,341.34 476.65,342.19 "/>
   <polygon class="fil0" points="476.65,342.19 474.96,343.03 "/>
   <polygon class="fil0" points="474.96,343.03 474.11,343.88 "/>
   <polygon class="fil0" points="474.11,343.88 472.42,344.72 "/>
   <polygon class="fil0" points="512.21,343.03 511.36,342.19 "/>
   <polygon class="fil0" points="472.42,344.72 471.57,345.57 "/>
   <polygon class="fil0" points="469.88,346.42 469.04,347.26 "/>
   <polygon class="fil0" points="297.18,495.41 295.49,496.26 "/>
   <polygon class="fil0" points="293.8,497.11 292.1,497.96 "/>
   <polygon class="fil0" points="295.49,496.26 293.8,497.11 "/>
   <polygon class="fil0" points="471.57,345.57 469.88,346.42 "/>
   <polygon class="fil0" points="506.28,338.8 505.44,337.95 "/>
   <polygon class="fil0" points="292.1,497.96 290.41,498.8 "/>
  </g>
 </g>
</svg>
