<?xml version="1.0" encoding="UTF-8"?>
<!DOCTYPE svg PUBLIC "-//W3C//DTD SVG 1.1//EN" "http://www.w3.org/Graphics/SVG/1.1/DTD/svg11.dtd">
<!-- Creator: CorelDRAW 2017 -->
<svg xmlns="http://www.w3.org/2000/svg" xml:space="preserve" width="1in" height="1in" version="1.1" style="shape-rendering:geometricPrecision; text-rendering:geometricPrecision; image-rendering:optimizeQuality; fill-rule:evenodd; clip-rule:evenodd"
viewBox="0 0 1000 1000"
 xmlns:xlink="http://www.w3.org/1999/xlink">
 <defs>
  <style type="text/css">
   <![CDATA[
    .fil0 {fill:#FEFEFE}
   ]]>
  </style>
 </defs>
 <g id="Layer_x0020_1">
  <metadata id="CorelCorpID_0Corel-Layer"/>
  <g id="_2518175680784">
   <polygon class="fil0" points="361.81,662.69 411.8,576.09 507.72,576.09 457.49,663.09 "/>
   <polygon class="fil0" points="354.06,489.69 305.52,573.78 354.57,658.74 403.01,574.85 "/>
   <polygon class="fil0" points="407.69,570.64 505.04,570.64 480.65,528.39 432.9,528.39 405.04,480.13 356.13,480.13 "/>
   <polygon class="fil0" points="429.12,323.06 373.91,418.68 431.71,518.78 486.96,423.08 "/>
   <polygon class="fil0" points="438.04,319.89 494.7,418.03 604.84,418.03 548.13,319.81 "/>
   <polygon class="fil0" points="437.46,522.38 492.82,426.48 602.03,426.48 576.28,471.09 519.96,471.09 489.77,523.37 "/>
   <polygon class="fil0" points="524.28,476.74 583.56,579.43 694.48,579.43 637.12,480.06 "/>
   <polygon class="fil0" points="582.18,585.25 691.59,585.25 636.77,680.19 524.29,680.19 "/>
   <polygon class="fil0" points="519.91,671.92 574.18,577.91 518.33,481.19 489.52,531.11 517.37,579.35 488.26,629.77 "/>
  </g>
 </g>
</svg>
