<?xml version="1.0" encoding="UTF-8"?>
<!DOCTYPE svg PUBLIC "-//W3C//DTD SVG 1.1//EN" "http://www.w3.org/Graphics/SVG/1.1/DTD/svg11.dtd">
<!-- Creator: CorelDRAW 2017 -->
<svg xmlns="http://www.w3.org/2000/svg" xml:space="preserve" width="1in" height="1in" version="1.1" style="shape-rendering:geometricPrecision; text-rendering:geometricPrecision; image-rendering:optimizeQuality; fill-rule:evenodd; clip-rule:evenodd"
viewBox="0 0 1000 1000"
 xmlns:xlink="http://www.w3.org/1999/xlink">
 <defs>
  <style type="text/css">
   <![CDATA[
    .fil0 {fill:#FEFEFE}
   ]]>
  </style>
 </defs>
 <g id="Layer_x0020_1">
  <metadata id="CorelCorpID_0Corel-Layer"/>
  <g id="_1576176451040">
   <path class="fil0" d="M499.26 639.54c2.7,17.56 0.34,64.72 -0.91,84.2 6.72,-1.83 41.28,-22.03 49.81,-27.22 16.41,-9.99 32.36,-18.69 49.15,-28.17l97.11 -56.05 0.15 -85.58c-4.53,1.03 -85.27,49.39 -96.69,55.93 -13.24,7.58 -91.95,55.46 -98.61,56.9l0 -0z"/>
   <path class="fil0" d="M621.25 470.35l1.71 -41c15.57,-7.59 61.41,-38.17 71.14,-40.18 0.28,6.03 -1.17,15.62 1.15,20.33 -0.25,-24.11 3.43,-19.04 -15.93,-30.02l-167.38 -97.35c-7.76,-4.52 -9,-8.69 -16.98,-3.39 -13.74,9.13 -42.37,24.23 -58.37,34.05 -6.15,3.77 -5.5,2.63 -7.84,6.49 18.07,10.47 186.98,107.17 192.52,111.99l0 39.06 -0 0z"/>
   <path class="fil0" d="M379.45 427.46c-7.48,-0.23 -30,-15.43 -38.09,-19.59l-32.13 -17.82c-3.16,-2.81 -3.68,0.89 -1.83,-3.74 -5.48,1.89 -2.76,19.46 -2.72,25.02l0.05 200.98c0.61,1.49 67,40.96 72.63,40.91 1.56,-30.69 -3,-215.85 2.1,-225.75l0 0z"/>
   <path class="fil0" d="M427.37 544.76c-1.92,-7.23 -2.73,-76.02 -1.05,-85.96 4.04,-1.81 11.89,4.46 17.88,8.3 4.91,3.15 12.48,7.67 17.8,10.94l37.22 21.15 0.46 80.72c-1.28,4.17 0.42,2.75 -3.46,3.15 0,2.28 -0.61,1.74 1.53,1.89 4.56,0.09 2.66,-6.82 2.73,-18.83 0.1,-18.08 -1.17,-51.94 0.08,-66.16 4.11,-2.93 69.33,-40.46 75.03,-41.86 -1.29,-4.15 0.14,-1.69 -8.15,-6.73l-28.25 -16.68c-48.5,-28.55 -29.43,-28.37 -77.03,-1.42 -12.75,7.22 -25.34,15.48 -38.02,21.69 -1.39,18.85 0.24,56.27 -0.3,80.01 -0.14,5.92 -1.43,8.45 3.53,9.79l0 0z"/>
   <path class="fil0" d="M621.25 470.35l-0.09 47.63c7.08,-1.61 29.73,-15.91 37.57,-20.5 11.98,-7.02 24.95,-15.03 37.3,-21.3l-0.8 -66.68c-2.31,-4.72 -0.87,-14.31 -1.15,-20.33 -9.74,2.01 -55.56,32.59 -71.14,40.18l-1.71 41 0 0z"/>
   <path class="fil0" d="M498.35 723.73c1.25,-19.47 3.61,-66.64 0.91,-84.2 -4.38,-3.72 -71.02,-42.3 -75.67,-43.75l-0.13 84.51c11.5,5.51 25.54,15.14 37.1,21.52 9.64,5.32 27.36,18.03 37.79,21.92l0 -0z"/>
   <path class="fil0" d="M497.76 584.93c4.32,2.06 14.06,-5.6 18.95,-8.43 6.48,-3.77 13.28,-7.46 20.02,-11.26l38.03 -22.85 0.83 -84.3c-5.7,1.4 -70.92,38.93 -75.03,41.85 -1.24,14.22 0.02,48.08 -0.08,66.16 -0.07,12 1.83,18.92 -2.73,18.82l0 0z"/>
   <path class="fil0" d="M427.37 544.76c2.63,3.01 26.85,15.76 33.51,19.41 6.8,3.73 30.51,18.43 35.35,18.88 3.87,-0.39 2.18,1.02 3.46,-3.15l-0.46 -80.72 -37.22 -21.15c-5.32,-3.26 -12.89,-7.79 -17.8,-10.94 -5.99,-3.85 -13.85,-10.11 -17.89,-8.3 -1.68,9.94 -0.87,78.73 1.05,85.96l0 0z"/>
   <path class="fil0" d="M307.39 386.3c-1.84,4.63 -1.32,0.93 1.84,3.74l32.13 17.82c8.08,4.16 30.6,19.36 38.09,19.59 13.87,-5.95 59.97,-36.97 71.96,-42.24 -3.37,-4.05 -44.41,-27.76 -53.33,-32.88 -21.57,-12.37 -8.78,-13.72 -54.17,12.53l-36.53 21.43 0 0z"/>
  </g>
 </g>
</svg>
